<mxfile host="app.diagrams.net" modified="2022-08-09T14:13:50.987Z" agent="5.0 (Windows NT 10.0; Win64; x64) AppleWebKit/537.36 (KHTML, like Gecko) Chrome/103.0.0.0 Safari/537.36" etag="sYsx_HBndWmZfOYdscmY" version="20.2.3" type="github" pages="2">
  <diagram id="tIxRO8xajf78YPQee-sz" name="server初始化流程">
    <mxGraphModel dx="2768" dy="1122" grid="1" gridSize="10" guides="1" tooltips="1" connect="1" arrows="1" fold="1" page="1" pageScale="1" pageWidth="827" pageHeight="1169" math="0" shadow="0">
      <root>
        <mxCell id="0" />
        <mxCell id="1" parent="0" />
        <mxCell id="Zc0WpYRjjQa7R1iuoixP-24" value="" style="verticalLabelPosition=bottom;verticalAlign=top;html=1;shape=mxgraph.basic.rect;fillColor2=none;strokeWidth=1;size=20;indent=5;labelBackgroundColor=#1A1A1A;" vertex="1" parent="1">
          <mxGeometry x="120" y="390" width="490" height="130" as="geometry" />
        </mxCell>
        <mxCell id="FBzr9HJSju0Ybb7Xefjj-1" value="main" style="shape=umlLifeline;perimeter=lifelinePerimeter;whiteSpace=wrap;html=1;container=1;collapsible=0;recursiveResize=0;outlineConnect=0;" vertex="1" parent="1">
          <mxGeometry x="-260" y="100" width="100" height="630" as="geometry" />
        </mxCell>
        <mxCell id="FBzr9HJSju0Ybb7Xefjj-2" value="NioEventLoopGroup" style="shape=umlLifeline;perimeter=lifelinePerimeter;whiteSpace=wrap;html=1;container=1;collapsible=0;recursiveResize=0;outlineConnect=0;" vertex="1" parent="1">
          <mxGeometry x="-80" y="100" width="130" height="650" as="geometry" />
        </mxCell>
        <mxCell id="Zc0WpYRjjQa7R1iuoixP-1" value="MultithreadEventExecutorGroup" style="shape=umlLifeline;perimeter=lifelinePerimeter;whiteSpace=wrap;html=1;container=1;collapsible=0;recursiveResize=0;outlineConnect=0;" vertex="1" parent="1">
          <mxGeometry x="110" y="100" width="190" height="650" as="geometry" />
        </mxCell>
        <mxCell id="Zc0WpYRjjQa7R1iuoixP-14" value="" style="html=1;points=[];perimeter=orthogonalPerimeter;labelBackgroundColor=#1A1A1A;" vertex="1" parent="Zc0WpYRjjQa7R1iuoixP-1">
          <mxGeometry x="90" y="230" width="10" height="40" as="geometry" />
        </mxCell>
        <mxCell id="Zc0WpYRjjQa7R1iuoixP-15" value="创建线程组" style="edgeStyle=orthogonalEdgeStyle;html=1;align=left;spacingLeft=2;endArrow=block;rounded=0;entryX=1;entryY=0;" edge="1" target="Zc0WpYRjjQa7R1iuoixP-14" parent="Zc0WpYRjjQa7R1iuoixP-1">
          <mxGeometry relative="1" as="geometry">
            <mxPoint x="95" y="210" as="sourcePoint" />
            <Array as="points">
              <mxPoint x="125" y="210" />
            </Array>
          </mxGeometry>
        </mxCell>
        <mxCell id="Zc0WpYRjjQa7R1iuoixP-26" value="loop" style="verticalLabelPosition=middle;verticalAlign=middle;html=1;shape=mxgraph.basic.rect;fillColor2=none;strokeWidth=1;size=20;indent=5;labelBackgroundColor=#FFFFFF;fontColor=#000000;labelPosition=center;align=center;" vertex="1" parent="Zc0WpYRjjQa7R1iuoixP-1">
          <mxGeometry x="10" y="290" width="110" height="20" as="geometry" />
        </mxCell>
        <mxCell id="Zc0WpYRjjQa7R1iuoixP-2" value="NioEventLoop" style="shape=umlLifeline;perimeter=lifelinePerimeter;whiteSpace=wrap;html=1;container=1;collapsible=0;recursiveResize=0;outlineConnect=0;" vertex="1" parent="1">
          <mxGeometry x="364" y="100" width="100" height="650" as="geometry" />
        </mxCell>
        <mxCell id="Zc0WpYRjjQa7R1iuoixP-20" value="" style="html=1;points=[];perimeter=orthogonalPerimeter;labelBackgroundColor=#1A1A1A;" vertex="1" parent="Zc0WpYRjjQa7R1iuoixP-2">
          <mxGeometry x="50" y="350" width="10" height="40" as="geometry" />
        </mxCell>
        <mxCell id="Zc0WpYRjjQa7R1iuoixP-21" value="1、创建/打开selector&lt;br&gt;2、设置轮询策略" style="edgeStyle=orthogonalEdgeStyle;html=1;align=left;spacingLeft=2;endArrow=block;rounded=0;entryX=1;entryY=0;" edge="1" target="Zc0WpYRjjQa7R1iuoixP-20" parent="Zc0WpYRjjQa7R1iuoixP-2">
          <mxGeometry relative="1" as="geometry">
            <mxPoint x="55" y="330" as="sourcePoint" />
            <Array as="points">
              <mxPoint x="85" y="330" />
            </Array>
          </mxGeometry>
        </mxCell>
        <mxCell id="Zc0WpYRjjQa7R1iuoixP-22" value="return" style="html=1;verticalAlign=bottom;endArrow=open;dashed=1;endSize=8;rounded=0;" edge="1" parent="Zc0WpYRjjQa7R1iuoixP-2" target="Zc0WpYRjjQa7R1iuoixP-1">
          <mxGeometry relative="1" as="geometry">
            <mxPoint x="50" y="380" as="sourcePoint" />
            <mxPoint x="-30" y="380" as="targetPoint" />
          </mxGeometry>
        </mxCell>
        <mxCell id="Zc0WpYRjjQa7R1iuoixP-4" value="ServerBootstrap" style="shape=umlLifeline;perimeter=lifelinePerimeter;whiteSpace=wrap;html=1;container=1;collapsible=0;recursiveResize=0;outlineConnect=0;" vertex="1" parent="1">
          <mxGeometry x="690" y="100" width="100" height="300" as="geometry" />
        </mxCell>
        <mxCell id="Zc0WpYRjjQa7R1iuoixP-5" value="ChannelFuture" style="shape=umlLifeline;perimeter=lifelinePerimeter;whiteSpace=wrap;html=1;container=1;collapsible=0;recursiveResize=0;outlineConnect=0;" vertex="1" parent="1">
          <mxGeometry x="910" y="100" width="100" height="300" as="geometry" />
        </mxCell>
        <mxCell id="Zc0WpYRjjQa7R1iuoixP-6" value="NioServerSocketChannel" style="shape=umlLifeline;perimeter=lifelinePerimeter;whiteSpace=wrap;html=1;container=1;collapsible=0;recursiveResize=0;outlineConnect=0;" vertex="1" parent="1">
          <mxGeometry x="1110" y="100" width="169" height="300" as="geometry" />
        </mxCell>
        <mxCell id="Zc0WpYRjjQa7R1iuoixP-7" value="AbstractNioChannel" style="shape=umlLifeline;perimeter=lifelinePerimeter;whiteSpace=wrap;html=1;container=1;collapsible=0;recursiveResize=0;outlineConnect=0;" vertex="1" parent="1">
          <mxGeometry x="1390" y="100" width="120" height="300" as="geometry" />
        </mxCell>
        <mxCell id="Zc0WpYRjjQa7R1iuoixP-8" value="AbstractChannel" style="shape=umlLifeline;perimeter=lifelinePerimeter;whiteSpace=wrap;html=1;container=1;collapsible=0;recursiveResize=0;outlineConnect=0;" vertex="1" parent="1">
          <mxGeometry x="1630" y="100" width="100" height="300" as="geometry" />
        </mxCell>
        <mxCell id="Zc0WpYRjjQa7R1iuoixP-9" value="SingleThreadEventLoop" style="shape=umlLifeline;perimeter=lifelinePerimeter;whiteSpace=wrap;html=1;container=1;collapsible=0;recursiveResize=0;outlineConnect=0;" vertex="1" parent="1">
          <mxGeometry x="1830" y="100" width="150" height="300" as="geometry" />
        </mxCell>
        <mxCell id="Zc0WpYRjjQa7R1iuoixP-10" value="AbstractChannel.AbstractUnsafe" style="shape=umlLifeline;perimeter=lifelinePerimeter;whiteSpace=wrap;html=1;container=1;collapsible=0;recursiveResize=0;outlineConnect=0;" vertex="1" parent="1">
          <mxGeometry x="2090" y="100" width="220" height="300" as="geometry" />
        </mxCell>
        <mxCell id="Zc0WpYRjjQa7R1iuoixP-12" value="new" style="html=1;verticalAlign=bottom;endArrow=block;rounded=0;" edge="1" parent="1" source="FBzr9HJSju0Ybb7Xefjj-1" target="FBzr9HJSju0Ybb7Xefjj-2">
          <mxGeometry width="80" relative="1" as="geometry">
            <mxPoint x="-190" y="200" as="sourcePoint" />
            <mxPoint x="80" y="350" as="targetPoint" />
            <Array as="points">
              <mxPoint x="-180" y="220" />
            </Array>
          </mxGeometry>
        </mxCell>
        <mxCell id="Zc0WpYRjjQa7R1iuoixP-13" value="调用父类构造器" style="html=1;verticalAlign=bottom;endArrow=block;rounded=0;" edge="1" parent="1" source="FBzr9HJSju0Ybb7Xefjj-2" target="Zc0WpYRjjQa7R1iuoixP-1">
          <mxGeometry width="80" relative="1" as="geometry">
            <mxPoint x="20" y="350" as="sourcePoint" />
            <mxPoint x="80" y="350" as="targetPoint" />
            <Array as="points">
              <mxPoint x="80" y="290" />
            </Array>
          </mxGeometry>
        </mxCell>
        <mxCell id="Zc0WpYRjjQa7R1iuoixP-16" value="为线程组中每一个元素实例化" style="html=1;verticalAlign=bottom;endArrow=block;rounded=0;startArrow=none;" edge="1" parent="1" source="Zc0WpYRjjQa7R1iuoixP-1" target="Zc0WpYRjjQa7R1iuoixP-2">
          <mxGeometry width="80" relative="1" as="geometry">
            <mxPoint x="536.6999999999998" y="890" as="sourcePoint" />
            <mxPoint x="220" y="450" as="targetPoint" />
          </mxGeometry>
        </mxCell>
        <mxCell id="Zc0WpYRjjQa7R1iuoixP-18" value="" style="html=1;verticalAlign=bottom;endArrow=none;rounded=0;" edge="1" parent="1" source="Zc0WpYRjjQa7R1iuoixP-1" target="Zc0WpYRjjQa7R1iuoixP-2">
          <mxGeometry width="80" relative="1" as="geometry">
            <mxPoint x="209.5" y="425" as="sourcePoint" />
            <mxPoint x="530.8499999999999" y="890" as="targetPoint" />
          </mxGeometry>
        </mxCell>
      </root>
    </mxGraphModel>
  </diagram>
  <diagram id="C_GjFuJY2KlmzBEu09hV" name="第 2 页">
    <mxGraphModel dx="1941" dy="1122" grid="1" gridSize="10" guides="1" tooltips="1" connect="1" arrows="1" fold="1" page="1" pageScale="1" pageWidth="827" pageHeight="1169" math="0" shadow="0">
      <root>
        <mxCell id="0" />
        <mxCell id="1" parent="0" />
      </root>
    </mxGraphModel>
  </diagram>
</mxfile>
